HIERARCHY
ROOT hips
{
  OFFSET 0 10.074487846421558 1.314567655973056
  CHANNELS 6 Xposition Yposition Zposition Yrotation Xrotation Zrotation
  JOINT spine
  {
    OFFSET -7.042773748992335e-31 0.5690686926897363 0
    CHANNELS 3 Yrotation Xrotation Zrotation
    JOINT chest
    {
      OFFSET 0 1.2435964857087873 0
      CHANNELS 3 Yrotation Xrotation Zrotation
      JOINT upperChest
      {
        OFFSET 0 1.194994586872362 0
        CHANNELS 3 Yrotation Xrotation Zrotation
        JOINT neck
        {
          OFFSET 0 1.515103653293861 0
          CHANNELS 3 Yrotation Xrotation Zrotation
          JOINT head
          {
            OFFSET 0 0.8111851616465653 0
            CHANNELS 3 Yrotation Xrotation Zrotation
            JOINT leftEye
            {
              OFFSET 0.27141371691966987 0.7490044407698551 0.18219031050045686
              CHANNELS 3 Yrotation Xrotation Zrotation
              End Site
              {
                OFFSET 0.27141371691966987 0.7490044407698551 0.18219031050045686
              }
            }
            JOINT rightEye
            {
              OFFSET -0.2714136877644943 0.7490044019380786 0.18219040411850668
              CHANNELS 3 Yrotation Xrotation Zrotation
              End Site
              {
                OFFSET -0.2714136877644943 0.7490044019380786 0.18219040411850668
              }
            }
          }
        }
        JOINT leftShoulder
        {
          OFFSET 0.4137993136083964 1.1593397335613034 0
          CHANNELS 3 Yrotation Xrotation Zrotation
          JOINT leftUpperArm
          {
            OFFSET 1.0096991868951026 0 0
            CHANNELS 3 Yrotation Xrotation Zrotation
            JOINT leftLowerArm
            {
              OFFSET 2.418380967671622 0 0
              CHANNELS 3 Yrotation Xrotation Zrotation
              JOINT leftHand
              {
                OFFSET 2.361538296260114 0 0
                CHANNELS 3 Yrotation Xrotation Zrotation
                JOINT leftIndexProximal
                {
                  OFFSET 0.7243699271447109 0.08118285989887508 0.2022042461579805
                  CHANNELS 3 Yrotation Xrotation Zrotation
                  JOINT leftIndexIntermediate
                  {
                    OFFSET 0.36553107045252053 -0.010567764853200323 -0.014102670024158437
                    CHANNELS 3 Yrotation Xrotation Zrotation
                    JOINT leftIndexDistal
                    {
                      OFFSET 0.22505120770060527 -0.007821041598631284 -0.007511611613336286
                      CHANNELS 3 Yrotation Xrotation Zrotation
                      End Site
                      {
                        OFFSET 0.22505120770060527 -0.007821041598631284 -0.007511611613336286
                      }
                    }
                  }
                }
                JOINT leftLittleProximal
                {
                  OFFSET 0.6721063881632002 0.08118279568569564 -0.3209324945517917
                  CHANNELS 3 Yrotation Xrotation Zrotation
                  JOINT leftLittleIntermediate
                  {
                    OFFSET 0.34587329423120616 5.3042709780015684e-8 -5.929537746918179e-8
                    CHANNELS 3 Yrotation Xrotation Zrotation
                    JOINT leftLittleDistal
                    {
                      OFFSET 0.1992782500022232 0.0030983716482184676 0.0038310952896712935
                      CHANNELS 3 Yrotation Xrotation Zrotation
                      End Site
                      {
                        OFFSET 0.1992782500022232 0.0030983716482184676 0.0038310952896712935
                      }
                    }
                  }
                }
                JOINT leftMiddleProximal
                {
                  OFFSET 0.7301229696860206 0.08118412848995638 0.022516891543707507
                  CHANNELS 3 Yrotation Xrotation Zrotation
                  JOINT leftMiddleIntermediate
                  {
                    OFFSET 0.4076277831942017 -0.000001240188283180288 -1.6203245635504349e-7
                    CHANNELS 3 Yrotation Xrotation Zrotation
                    JOINT leftMiddleDistal
                    {
                      OFFSET 0.2514739255593972 0.0000013850839168938478 -1.8644847207816007e-8
                      CHANNELS 3 Yrotation Xrotation Zrotation
                      End Site
                      {
                        OFFSET 0.2514739255593972 0.0000013850839168938478 -1.8644847207816007e-8
                      }
                    }
                  }
                }
                JOINT leftRingProximal
                {
                  OFFSET 0.7218060861525873 0.08118280646416753 -0.1494689818508163
                  CHANNELS 3 Yrotation Xrotation Zrotation
                  JOINT leftRingIntermediate
                  {
                    OFFSET 0.3781267508900358 0.000001373626195677602 -1.4143108284514483e-7
                    CHANNELS 3 Yrotation Xrotation Zrotation
                    JOINT leftRingDistal
                    {
                      OFFSET 0.21814333268795483 -0.0027137626495670197 -0.004991775417842292
                      CHANNELS 3 Yrotation Xrotation Zrotation
                      End Site
                      {
                        OFFSET 0.21814333268795483 -0.0027137626495670197 -0.004991775417842292
                      }
                    }
                  }
                }
                JOINT leftThumbProximal
                {
                  OFFSET 0.10743676110519984 -0.16423092885053192 -0.07708859146227388
                  CHANNELS 3 Yrotation Xrotation Zrotation
                  JOINT leftThumbIntermediate
                  {
                    OFFSET 0.40350402100066307 -0.01735099334274981 0.315629965828783
                    CHANNELS 3 Yrotation Xrotation Zrotation
                    JOINT leftThumbDistal
                    {
                      OFFSET 0.2320014489535681 -0.01842351809041043 0.21271298411519196
                      CHANNELS 3 Yrotation Xrotation Zrotation
                      End Site
                      {
                        OFFSET 0.2320014489535681 -0.01842351809041043 0.21271298411519196
                      }
                    }
                  }
                }
              }
            }
          }
        }
        JOINT rightShoulder
        {
          OFFSET -0.41379931360839656 1.1593397335613034 0
          CHANNELS 3 Yrotation Xrotation Zrotation
          JOINT rightUpperArm
          {
            OFFSET -1.0096991868951024 0 0
            CHANNELS 3 Yrotation Xrotation Zrotation
            JOINT rightLowerArm
            {
              OFFSET -2.4183809676716232 0 0
              CHANNELS 3 Yrotation Xrotation Zrotation
              JOINT rightHand
              {
                OFFSET -2.3615382962601132 0 0
                CHANNELS 3 Yrotation Xrotation Zrotation
                JOINT rightIndexProximal
                {
                  OFFSET -0.7243699271447109 0.08118285989887508 0.2022042461579805
                  CHANNELS 3 Yrotation Xrotation Zrotation
                  JOINT rightIndexIntermediate
                  {
                    OFFSET -0.36553107045252053 -0.010567764853200323 -0.014102670024158437
                    CHANNELS 3 Yrotation Xrotation Zrotation
                    JOINT rightIndexDistal
                    {
                      OFFSET -0.22505120770060527 -0.007821041598631284 -0.007511611613336286
                      CHANNELS 3 Yrotation Xrotation Zrotation
                      End Site
                      {
                        OFFSET -0.22505120770060527 -0.007821041598631284 -0.007511611613336286
                      }
                    }
                  }
                }
                JOINT rightLittleProximal
                {
                  OFFSET -0.6721063881632002 0.08118279568569564 -0.3209324945517917
                  CHANNELS 3 Yrotation Xrotation Zrotation
                  JOINT rightLittleIntermediate
                  {
                    OFFSET -0.34587329423120616 5.3042709780015684e-8 -5.929537746918179e-8
                    CHANNELS 3 Yrotation Xrotation Zrotation
                    JOINT rightLittleDistal
                    {
                      OFFSET -0.1992782500022232 0.0030983716482184676 0.0038310952896712935
                      CHANNELS 3 Yrotation Xrotation Zrotation
                      End Site
                      {
                        OFFSET -0.1992782500022232 0.0030983716482184676 0.0038310952896712935
                      }
                    }
                  }
                }
                JOINT rightMiddleProximal
                {
                  OFFSET -0.7301229696860206 0.08118412848995638 0.022516891543707507
                  CHANNELS 3 Yrotation Xrotation Zrotation
                  JOINT rightMiddleIntermediate
                  {
                    OFFSET -0.4076277831942017 -0.000001240188283180288 -1.6203245635504349e-7
                    CHANNELS 3 Yrotation Xrotation Zrotation
                    JOINT rightMiddleDistal
                    {
                      OFFSET -0.2514739255593972 0.0000013850839168938478 -1.8644847207816007e-8
                      CHANNELS 3 Yrotation Xrotation Zrotation
                      End Site
                      {
                        OFFSET -0.2514739255593972 0.0000013850839168938478 -1.8644847207816007e-8
                      }
                    }
                  }
                }
                JOINT rightRingProximal
                {
                  OFFSET -0.7218060861525873 0.08118280646416753 -0.1494689818508163
                  CHANNELS 3 Yrotation Xrotation Zrotation
                  JOINT rightRingIntermediate
                  {
                    OFFSET -0.3781267508900358 0.000001373626195677602 -1.4143108284514483e-7
                    CHANNELS 3 Yrotation Xrotation Zrotation
                    JOINT rightRingDistal
                    {
                      OFFSET -0.21814333268795483 -0.0027137626495670197 -0.004991775417842292
                      CHANNELS 3 Yrotation Xrotation Zrotation
                      End Site
                      {
                        OFFSET -0.21814333268795483 -0.0027137626495670197 -0.004991775417842292
                      }
                    }
                  }
                }
                JOINT rightThumbProximal
                {
                  OFFSET -0.10743676110519984 -0.16423092885053192 -0.07708859146227388
                  CHANNELS 3 Yrotation Xrotation Zrotation
                  JOINT rightThumbIntermediate
                  {
                    OFFSET -0.40350402100066307 -0.01735099334274981 0.315629965828783
                    CHANNELS 3 Yrotation Xrotation Zrotation
                    JOINT rightThumbDistal
                    {
                      OFFSET -0.2320014489535681 -0.01842351809041043 0.21271298411519196
                      CHANNELS 3 Yrotation Xrotation Zrotation
                      End Site
                      {
                        OFFSET -0.2320014489535681 -0.01842351809041043 0.21271298411519196
                      }
                    }
                  }
                }
              }
            }
          }
        }
      }
    }
  }
  JOINT leftUpperLeg
  {
    OFFSET 0.8487163290887698 -0.43932186100277326 0
    CHANNELS 3 Yrotation Xrotation Zrotation
    JOINT leftLowerLeg
    {
      OFFSET 0 -3.882816707004296 0
      CHANNELS 3 Yrotation Xrotation Zrotation
      JOINT leftFoot
      {
        OFFSET 0 -4.570431027442807 0.004629272230691511
        CHANNELS 3 Yrotation Xrotation Zrotation
        JOINT leftToes
        {
          OFFSET 0 -0.698875637876343 1.214565366696912
          CHANNELS 3 Yrotation Xrotation Zrotation
          End Site
          {
            OFFSET 0 -0.698875637876343 1.214565366696912
          }
        }
      }
    }
  }
  JOINT rightUpperLeg
  {
    OFFSET -0.8487163290887698 -0.43932186100277326 0
    CHANNELS 3 Yrotation Xrotation Zrotation
    JOINT rightLowerLeg
    {
      OFFSET 0 -3.882816707004296 0
      CHANNELS 3 Yrotation Xrotation Zrotation
      JOINT rightFoot
      {
        OFFSET 0 -4.570431027442807 0.004629272230691511
        CHANNELS 3 Yrotation Xrotation Zrotation
        JOINT rightToes
        {
          OFFSET 0 -0.698875637876343 1.214565366696912
          CHANNELS 3 Yrotation Xrotation Zrotation
          End Site
          {
            OFFSET 0 -0.698875637876343 1.214565366696912
          }
        }
      }
    }
  }
}
MOTION
Frames: 4
Frame Time: 0.03333333333333333
-0.8707574605941772 -6.056698482560474 -0.934356153011322 22.494026285974595 51.26861215411398 17.90739871246115 4.526907745222117 21.074537013115474 1.3491268413082242 3.9272532428192775 19.594589768245093 1.4272406011062622 0 0 0 -3.816594230844654 -5.492593980968708 -0.5920532150325213 -18.915307745534378 -26.940084829565553 8.66258807101759 0 0 0 0 0 0 -16.14937734380785 2.01710918362519 1.859845608819286 -68.44872197668725 -43.40134626684751 5.9274659697486465 -57.03348270709076 -4.449894422188944 3.2208030736034257 33.7979629106138 19.694486573687055 -14.200932747536482 4.769143541718294 2.0960820410253693 -31.8615093579503 3.2289014624375647 0.9128248826233255 -31.56630782294307 1.6318987700363663 0.21986937161490525 -15.34740309466141 6.411293787530693 3.275324213576606 -38.30464957047384 -0.9632558045965565 0.84670618962414 -30.67399989239568 2.377640172695821 0.4768394199599069 -22.678859606239712 4.039698347348701 1.2268896484023895 -17.48491990923947 3.3708943068526547 1.0027724812601508 -33.12600685573149 1.523414357087214 0.1911605141678132 -14.305002781334766 4.371108671236375 1.8587876421809817 -39.21837720240224 3.6866129301619384 1.223039316533533 -36.69771964094015 1.6850165146928504 0.23470666030886736 -15.860100231356519 5.688985658497792 -10.256531345302127 5.723457823817503 21.99250709023695 15.906990210561505 4.744317889968134 37.24182098118807 2.0742047599054283 7.614786623410279 14.29100811771811 1.3388535384626077 2.8857790592157913 50.23525539146433 -51.39387628003434 -6.0903209032865915 32.32146741292121 -2.939735212239201 -1.2805518270877934 -5.441964103440221 26.85262299285068 -75.80728379821856 6.316668847279391 -1.1984497344621166 4.7736539733339525 -0.8166458770907553 0.05372567557488608 7.52870062893767 1.6038752766825817 0.20989292970430007 -14.910090201836717 -16.711240640922803 -0.6401163936555987 -8.876630685822963 -1.095153463390295 0.09696756825545087 10.119733838327578 0.06134217551492015 0.00030345425954541845 -0.5639292255265838 -0.433082531440543 0.02864147233248955 2.555715026286582 -0.9340711905901362 0.07038984620910053 8.618904415414312 1.6038687691654823 0.20988890093287446 -14.910100102236035 -6.223071108596315 0.4798210615197664 -1.775946316539091 -0.5371839974537865 0.023194681057134167 4.944427036257033 0.9612788998653753 0.07457326038280575 -8.872097226017601 -0.5232400956788091 -21.798343406030202 6.68197948329312 0.2635308668928334 -1.4494246806143158 -6.180356692437147 3.517630270655053 -10.187018583834561 2.2148631205871907 -141.8552784313215 -79.97848014736194 142.17719832496223 168.83313675253797 50.13359328946636 167.9194814173717 2.91632054403415 23.726467598417347 10.582746388680002 38.45699306367115 31.94900828345095 56.5077733377942 -3.7933967902913865 -31.760741027028704 3.8966111662583454 19.406693382720416 71.47953140860464 15.091672022708437 9.835776725831492 34.33963691745291 31.771899507824724 48.363508709198285 24.571471634990555 36.17319752892331
-0.8524993658065796 -6.052528541611988 -0.9083834290504456 21.397303839119502 51.45185265431936 17.21490626257887 4.274309600769436 21.3153578549084 1.067879957341321 3.7611301144874716 19.912183042388044 1.1744648589177087 0 0 0 -3.6705781210722526 -5.747605929836563 -0.8342734361549625 -18.300191146225828 -26.801264944763425 8.56750158174971 0 0 0 0 0 0 -16.15647131728647 2.2040932308146073 3.1657640120707584 -70.48378143861807 -45.19349856148455 10.194461832144096 -56.587492975781124 -4.430470832280266 3.180572034568188 32.96751495058121 19.935394796505413 -11.03255990392004 4.657800404891738 1.986389163274017 -30.935544755680166 3.161963583798423 0.8722977326639655 -30.840006412291373 1.5321974246594203 0.193412034674174 -14.389164633758261 6.768221321621786 3.5033176514809083 -36.76814115620803 -1.0223903840251165 0.812066030288174 -30.037881915957563 2.304305861173748 0.4467424407923401 -21.943015212271582 3.732583663660989 1.0839678713328804 -17.089010365609695 3.2975223310989015 0.9556118879022765 -32.316386833602124 1.4266914137415738 0.16733060108150336 -13.379740670583494 4.405521508104903 1.886003615574086 -37.91840905022907 3.59919970030344 1.1590927916594296 -35.69297158180342 1.603766866978262 0.21222726941302808 -15.076903488538672 5.484101219678916 -10.624065248403904 5.338417549823972 21.219198167036676 15.39614836304223 4.748677528143031 35.969785112361166 1.7802143985106622 7.253553873998762 14.211197341646223 1.2424527528677702 3.481836014318949 51.33316925427369 -51.048362135632885 -5.7591438017140995 32.015801644982666 -2.916081057368562 -1.2609800498834 -4.827797100670981 27.53122031532247 -76.5177608975284 6.3169916967394295 -1.1984551784599926 4.773287187685693 -0.816511479377295 0.05371332586706711 7.5278445274479004 1.6038423123742258 0.20988107017517266 -14.910095152036492 -16.711696984530377 -0.640580181792995 -8.878094738200733 -1.0950894834031224 0.09695741633865124 10.119072981300635 0.06142509823456078 0.0003031662203712411 -0.5647220899055645 -0.43290465809640394 0.02862522061570162 2.5547822317560733 -0.9339773946037001 0.07037302418753505 8.618138268877628 1.6038482864884402 0.2098910487216145 -14.910100102236035 -6.223155398921424 0.47969539230570096 -1.7772475190219974 -0.537087760041222 0.023188286091896677 4.943371873522524 0.9613938803576569 0.07458541332734701 -8.872925687310731 -0.5231479441406998 -21.798781099493215 6.682487744160673 0.2642743746505958 -1.450076211740968 -6.180476326897302 3.5189223361322073 -10.187468789850456 2.215099126628057 -139.09665077891768 -79.73702784933029 139.4717174212819 167.46812348841445 49.76068317188276 166.90072103536673 3.7221053773258883 23.05180914665623 9.667516222069434 37.13406794300073 29.538209517951962 57.85633389866474 -3.170691849583601 -30.02261015472822 3.5955062522765404 16.0195619399259 69.31324453614803 11.530556756696765 9.894969167393398 35.01524031526638 31.315958101394024 48.95873401067074 24.9986929794951 36.49085116129197
-0.8090975284576416 -6.042902153062183 -0.8530065417289734 19.09456601905293 52.06467175352267 15.718061444904452 3.7951499158046076 21.745223226375106 0.5993503927266539 3.3108242962900634 20.52796406337094 0.6905140813020537 0 0 0 -3.3269288168643563 -6.314976235508823 -1.2618658682901915 -16.779597794163468 -26.577769936954542 8.222868729495842 0 0 0 0 0 0 -16.369789697906526 2.5622254347920186 5.536814311235899 -74.3966026192492 -48.173820263243016 19.15945464892088 -55.73686662008821 -4.39260006495027 3.1042154854797053 31.454121818387215 20.84534577346093 -4.2444517142835 4.428214282946656 1.776462817759941 -29.089138078097818 3.026997778507967 0.7940346941879084 -29.391889985009538 1.332171951102378 0.1456327699446359 -12.478650120313745 7.54203390677821 3.87741016674618 -33.70071448465501 -1.1414337279449778 0.7450205164358531 -28.76959892332785 2.1570271681058424 0.38959795304177547 -20.475932148591053 3.1135924719506387 0.8147930980551299 -16.297447488177028 3.1492020352815646 0.864709801418534 -30.702188102814254 1.2328396968356221 0.12451317925432817 -11.534964622306594 4.488297851447192 1.9239492129326614 -35.32636905856939 3.4216285910855295 1.0362045063422816 -33.689652594676716 1.4409104113340576 0.17071430752840067 -13.515382874988862 5.084241839017503 -11.351817034707814 4.564177017726172 19.691237789280063 14.357608288816506 4.762874095732675 33.44261627473552 1.1817642518135902 6.536017672173408 13.950325821679273 1.0642643291476444 4.606316610513139 53.37339297414178 -50.77539907646603 -4.724941801577566 32.06980211645241 -2.920278529027559 -1.2644129523624572 -3.792337492502742 29.5229315439741 -77.82439080007313 6.3170510139349805 -1.198481864724248 4.773415264725057 -0.8165011817738403 0.05371457651260632 7.527609429341013 1.6038502067394302 0.20987905578946126 -14.910059514545583 -16.711864473571463 -0.6406181770950303 -8.878217164476975 -1.0950818008328767 0.09695650253273709 10.118999739251509 0.06146899418184684 0.00030139416064133175 -0.564875708335784 -0.43290150989554754 0.02862518393011068 2.5548016358033943 -0.9339685378720716 0.07037677946038993 8.6179650156485 1.6038711161388672 0.20988411176419436 -14.910081072783832 -6.223181656690572 0.47969251071865393 -1.7773248569939593 -0.537035575416719 0.0231755995480835 4.943156607738443 0.9613863041767674 0.07459527842338488 -8.873109262237474 -0.523285453249883 -21.799132358659747 6.682861671092334 0.2644347785149525 -1.4502305807687974 -6.180499563181507 3.5192108373953275 -10.187558137170058 2.2151673251274775 -132.08640074326564 -79.57454767960027 132.3543283439351 164.47296116065846 49.31932069393757 164.58436213129556 4.926564612024251 21.874069583054247 8.030440733685083 34.368705478867525 25.883619786124306 59.55775409234875 -2.1041255793675195 -26.73180210462579 2.989565952181343 11.077423237993353 64.67420701548777 6.222158038208725 9.77992717522135 36.06985893502947 30.06928062771713 49.93985020233158 26.55124317511533 37.30739642983351
-0.7555603981018066 -6.033198993729908 -0.796790361404419 16.37038167751746 52.94154259161455 13.751429491406261 3.3296490327596557 22.135539430792722 0.2839208278213121 2.7739226819220972 21.15990291796519 0.24632620082197057 0 0 0 -2.9032633932259 -6.901116904648365 -1.5861449633387252 -14.76505130485829 -26.3627979167281 7.598652828069293 0 0 0 0 0 0 -16.62813529962347 3.0725444768832473 8.122307405899214 -77.93031112377629 -50.633391363659435 28.378921804760125 -54.767245906047044 -4.348004585116198 3.017877395939535 29.796627155363982 21.40500825754393 3.034238353874239 4.180686287025206 1.572830123318653 -27.18173332076849 2.8855961061102002 0.7168130081402025 -27.896331936157317 1.1241113347076417 0.10332344251611641 -10.50556664814315 8.424679971836802 4.1372029849126415 -30.530783615927422 -1.2658929392442981 0.6785093485025807 -27.459777072432985 2.003480368357778 0.3345695130949364 -18.960766352097927 2.464821651252323 0.5603648565674302 -15.477025639225062 2.993451760810773 0.7752519937112877 -29.035030152729 1.031327814333319 0.08685029749680859 -9.629815064158217 4.593381377893596 1.937005913298205 -32.64936437809866 3.233875671359724 0.9158974716191041 -31.62056752680406 1.2716157265102002 0.1325551602752435 -11.902754310984312 4.683668970853465 -12.094956925214623 3.754030819828729 18.133643220484313 13.254688389341641 4.783107983242606 30.84554010845332 0.5486012258346237 5.796884633829052 13.684063773946503 0.9153927202188329 5.65707526732248 55.582893089212526 -50.989806316116976 -3.5915911421577125 32.475163114983935 -2.951570492242099 -1.290423099404112 -2.6965354788431015 32.28100141882156 -78.86486274416421 6.316497637342986 -1.1984548582248231 4.773940196615575 -0.8166780504315453 0.05374024976424086 7.528976802360733 1.6038100948291107 0.2098749469762229 -14.909641208440666 -16.71115264327944 -0.639916864978397 -8.875972052000403 -1.0952059609534754 0.09697993465082065 10.120010956217207 0.061328455113165904 0.0002999926565998124 -0.5636712046853175 -0.4331583275121028 0.028650960560330077 2.5561767324611115 -0.9341005351809962 0.0703914270255604 8.61917730282393 1.603825456837504 0.20987730820980455 -14.909619650212424 -6.223108770615468 0.47989134022774693 -1.7753507587148245 -0.5372394903066013 0.023193400396559854 4.944815725274036 0.9612554243750042 0.07457457439492118 -8.871797137127436 -0.5233881087821705 -21.798347084120955 6.681960304482543 0.2632942670066307 -1.4491881096338952 -6.180339824295982 3.5171928788910822 -10.18685203379323 2.2147979872232315 -122.61045264675309 -79.68736737457611 122.62894100234925 160.99543842623305 49.21625412243545 161.7959696135223 5.663477438588842 21.274192323344504 6.800748401557441 31.407990525072663 24.051207837116497 59.319202940720686 -1.2945134456317062 -23.628933564976904 2.4612074251950404 7.388092812637304 59.70828177947768 2.196718150804591 9.273507927191309 36.9380737340026 27.993437980722096 50.56846758219593 29.382827035816607 38.163434853763
